<svg xmlns="http://www.w3.org/2000/svg" width="1024" height="1024" viewBox="0 0 1024 1024">
<g>
<path d="M 498.62 980.60 C493.69,978.52 489.88,975.31 475.15,960.81 C465.48,951.29 442.02,928.20 423.03,909.51 C404.04,890.82 368.02,855.27 342.99,830.51 C239.12,727.77 151.18,641.06 120.90,611.51 C93.58,584.84 90.98,581.42 91.02,572.05 C91.03,568.84 91.82,564.79 92.88,562.45 C94.15,559.67 106.74,546.47 133.39,520.00 C154.66,498.88 173.29,480.80 174.78,479.82 C176.27,478.84 179.87,477.55 182.79,476.94 C187.16,476.03 189.08,476.13 193.79,477.53 C199.43,479.20 200.47,480.20 275.50,555.62 L 351.50 632.03 L 356.36 632.01 C361.07,632.00 361.49,631.75 369.10,624.34 C377.19,616.47 379.04,612.85 377.49,607.95 C377.10,606.73 331.04,559.86 275.14,503.80 C219.24,447.74 172.61,400.21 171.52,398.18 C168.82,393.15 168.76,381.14 171.41,375.50 C172.72,372.73 227.00,317.71 347.90,196.65 C503.90,40.43 523.14,21.49 528.50,18.90 C535.82,15.36 542.53,15.10 550.40,18.05 C555.50,19.96 562.79,27.02 655.19,119.57 C720.37,184.86 755.08,220.32 756.20,222.77 C758.98,228.85 759.48,236.24 757.53,242.25 C754.30,252.19 753.78,252.62 716.00,276.50 C707.47,281.89 696.90,288.65 692.50,291.52 C685.74,295.93 617.67,339.83 560.85,376.42 C541.25,389.04 495.57,418.51 461.50,440.52 C447.20,449.76 429.20,461.38 421.50,466.33 C407.96,475.06 401.50,479.23 380.69,492.70 C367.72,501.09 365.48,505.83 370.25,514.81 C372.25,518.57 374.64,520.32 391.50,530.36 C469.88,577.01 600.54,655.13 646.00,682.52 C664.42,693.62 690.90,709.52 704.84,717.85 C718.77,726.18 731.04,734.01 732.11,735.25 C733.17,736.49 735.02,739.30 736.21,741.50 C739.11,746.84 739.21,757.65 736.44,763.77 C733.50,770.24 528.69,976.11 521.63,979.69 C514.18,983.46 506.17,983.78 498.62,980.60 ZM 796.00 671.70 C794.08,670.97 787.33,667.52 781.00,664.04 C774.67,660.56 764.78,655.14 759.00,652.00 C744.72,644.23 699.68,619.35 645.50,589.31 C620.75,575.59 594.59,561.13 587.37,557.18 C573.63,549.68 568.86,545.56 564.93,537.85 C563.11,534.30 562.84,532.40 563.21,525.98 L 563.65 518.35 L 599.23 454.43 C618.79,419.27 641.28,378.89 649.20,364.70 C657.32,350.14 665.24,337.21 667.37,335.00 C672.56,329.66 678.18,327.67 686.73,328.15 C694.54,328.60 687.88,325.15 757.00,364.52 C818.68,399.66 875.93,432.19 896.00,443.51 C914.46,453.91 919.30,457.85 922.99,465.47 C924.90,469.43 925.18,471.30 924.78,477.50 C924.33,484.56 923.94,485.51 914.48,502.67 C904.28,521.17 890.74,545.67 864.26,593.50 C855.73,608.90 843.79,630.50 837.73,641.50 C826.04,662.70 822.91,666.93 816.50,670.24 C811.51,672.81 800.90,673.57 796.00,671.70 Z" fill="rgba(0,0,0,1)"/>
</g>
</svg>