<svg xmlns="http://www.w3.org/2000/svg" width="1024" height="1024" viewBox="0 0 1024 1024">
<g>
<path d="M 503.72 993.93 C495.08,991.85 496.56,993.16 439.50,936.99 C424.10,921.83 364.92,863.30 308.00,806.94 C251.07,750.57 180.12,680.47 150.31,651.16 C112.06,613.55 95.52,596.63 94.06,593.63 C91.51,588.35 91.38,579.97 93.78,574.72 C94.88,572.30 109.22,557.22 133.50,532.94 C174.89,491.56 177.10,489.77 187.29,489.67 C190.45,489.64 194.07,490.37 196.50,491.52 C199.20,492.81 225.04,518.08 276.00,569.24 L 351.50 645.05 L 356.19 645.03 C360.48,645.00 361.50,644.47 367.86,638.98 C375.99,631.97 379.56,625.84 378.46,620.82 C377.91,618.29 356.39,596.22 276.36,516.09 C201.26,440.89 174.40,413.38 172.78,410.04 C171.58,407.56 170.41,402.97 170.18,399.85 C169.28,387.41 156.29,401.32 348.80,208.68 C450.58,106.83 524.36,33.75 527.00,32.18 C530.94,29.84 532.57,29.50 540.00,29.50 C547.44,29.50 549.06,29.84 553.00,32.18 C559.49,36.05 752.24,229.35 754.85,234.60 C757.59,240.12 758.47,247.52 757.02,253.03 C754.89,261.15 751.75,264.56 738.20,273.40 C718.42,286.32 679.47,311.48 658.00,325.20 C647.28,332.06 621.17,348.85 600.00,362.51 C578.83,376.17 554.75,391.67 546.50,396.96 C538.25,402.24 517.66,415.55 500.74,426.53 C447.89,460.84 390.78,497.65 378.05,505.62 C369.69,510.85 367.61,513.67 367.63,519.75 C367.66,528.30 369.19,529.86 389.26,541.82 C399.29,547.79 417.17,558.53 429.00,565.68 C440.83,572.84 470.75,590.76 495.50,605.51 C564.64,646.72 700.95,728.36 715.50,737.29 C730.85,746.70 731.43,747.17 734.83,752.97 C738.44,759.14 738.48,769.73 734.91,776.42 C733.29,779.46 698.76,814.90 629.19,884.93 C519.66,995.17 521.93,993.06 511.50,994.35 C509.30,994.62 505.80,994.43 503.72,993.93 ZM 796.83 683.02 C793.49,682.01 759.91,664.16 730.00,647.49 C724.78,644.58 687.88,624.10 648.00,601.99 C608.12,579.88 574.03,560.39 572.23,558.68 C567.57,554.24 564.00,546.57 564.00,540.96 C564.00,533.86 565.95,528.77 574.71,513.00 C579.14,505.02 597.06,472.85 614.52,441.50 C631.99,410.15 649.43,378.65 653.29,371.50 C666.07,347.82 671.11,342.42 681.53,341.24 C690.15,340.27 698.44,343.96 734.00,364.56 C746.89,372.03 869.94,442.14 896.37,457.07 C918.43,469.53 923.45,475.45 923.46,489.00 C923.47,496.00 923.17,497.04 919.06,504.50 C916.64,508.90 913.89,513.62 912.95,515.00 C912.02,516.38 906.66,526.05 901.06,536.50 C895.45,546.95 890.22,556.16 889.44,556.96 C888.18,558.24 880.74,551.17 830.71,501.21 C789.70,460.27 772.78,444.00 771.21,444.00 C770.00,444.00 767.20,445.63 765.00,447.62 C757.27,454.60 753.82,450.28 819.50,515.99 C862.36,558.87 878.00,575.13 878.00,576.79 C878.00,578.03 876.27,581.85 874.15,585.27 C869.98,592.02 866.30,598.71 842.90,641.97 C825.95,673.30 820.68,680.35 812.38,682.79 C807.79,684.14 800.88,684.24 796.83,683.02 Z" fill="rgba(0,0,0,1)"/>
</g>
</svg>