<svg xmlns="http://www.w3.org/2000/svg" width="1024" height="1024" viewBox="0 0 1024 1024">
  <path d="M 520.00 980.93 C512.88,984.14 504.91,983.72 497.26,979.74 C496.92,979.56 496.61,979.41 496.30,979.25 C490.71,976.38 486.06,971.69 278.54,766.52 C197.09,686.00 141.57,631.26 111.17,601.51 C102.74,593.25 94.88,584.70 93.70,582.50 C90.74,576.93 90.76,567.05 93.75,561.37 C96.13,556.85 172.03,481.59 176.66,479.16 C181.08,476.85 191.20,476.47 196.19,478.43 C199.65,479.78 215.50,495.09 276.50,555.96 C318.30,597.68 353.52,632.11 354.77,632.48 C358.61,633.61 363.34,631.23 369.14,625.24 C376.64,617.51 378.00,615.25 378.00,610.54 C378.00,606.54 377.45,605.97 276.09,504.51 C203.37,431.71 173.54,401.21 171.91,398.00 C168.95,392.14 168.80,382.34 171.57,376.31 C172.98,373.25 220.43,325.00 347.69,197.24 C518.48,25.76 522.01,22.29 529.06,19.04 C535.55,16.05 536.85,15.79 542.57,16.32 C546.33,16.68 550.84,17.92 553.70,19.39 C557.26,21.22 583.85,47.27 656.60,120.18 C744.88,208.67 754.92,219.05 756.99,224.00 C761.21,234.14 759.22,245.00 751.70,252.83 C749.94,254.66 740.26,261.41 730.20,267.83 C720.13,274.25 707.67,282.20 702.50,285.50 C697.34,288.80 689.60,293.72 685.31,296.44 C678.68,300.64 641.87,324.44 604.50,348.69 C592.06,356.76 548.76,384.63 540.00,390.20 C531.41,395.67 505.62,412.31 490.00,422.48 C483.12,426.95 473.69,433.06 469.04,436.05 C464.38,439.05 453.81,445.86 445.54,451.20 C437.27,456.53 425.33,464.23 419.00,468.31 C412.67,472.38 401.65,479.52 394.50,484.17 C387.35,488.82 379.35,493.89 376.72,495.43 C371.11,498.71 369.00,502.23 369.00,508.30 C369.00,515.48 371.75,518.32 388.01,527.93 C396.00,532.64 407.02,539.24 412.51,542.59 C418.01,545.94 437.12,557.36 455.00,567.97 C472.88,578.58 491.33,589.59 496.00,592.45 C500.67,595.31 517.78,605.55 534.00,615.22 C569.20,636.18 647.12,682.88 687.50,707.21 C703.45,716.82 719.72,726.55 723.66,728.83 C731.53,733.39 736.37,738.96 738.14,745.48 C739.75,751.42 738.53,761.43 735.59,766.37 C734.24,768.64 686.19,817.39 628.82,874.71 C547.68,955.75 523.50,979.36 520.00,980.93 Z M 816.04 670.89 C810.27,673.37 803.82,674.23 799.42,673.11 C796.69,672.41 778.13,662.61 749.00,646.47 C743.78,643.58 716.10,628.27 687.50,612.46 C658.90,596.65 625.60,578.22 613.50,571.52 C601.40,564.82 587.59,557.21 582.81,554.62 C567.36,546.24 561.04,535.35 563.90,522.01 C564.90,517.36 588.65,473.62 637.62,386.26 C641.25,379.79 648.72,366.40 654.23,356.50 C659.73,346.60 665.20,337.44 666.37,336.15 C672.97,328.89 685.12,326.11 694.50,329.72 C697.25,330.77 711.20,338.31 725.50,346.47 C773.45,373.82 864.26,425.51 889.84,440.02 C915.96,454.84 919.75,457.73 923.60,465.86 C924.74,468.25 925.33,471.94 925.33,476.61 L 925.33 483.73 L 907.01 517.11 C896.94,535.48 887.01,553.42 884.96,557.00 C882.90,560.58 874.26,576.10 865.76,591.50 C857.26,606.90 844.96,629.16 838.43,640.97 C831.90,652.77 825.31,663.85 823.79,665.59 C822.26,667.33 818.77,669.71 816.04,670.89 Z" fill="#F2F0EB"/>
</svg>
